<svg width="52" height="51" viewBox="0 0 52 51" fill="none" xmlns="http://www.w3.org/2000/svg">
<rect width="52" height="50.5143" rx="10" fill="#E8E8E8"/>
<rect width="52" height="50.5143" rx="10" stroke="#6F63AD"/>
<path d="M25.9983 26.3321C25.8585 26.3321 25.7187 26.2998 25.5896 26.2245L16.0924 20.7284C15.7159 20.5025 15.5761 20.0077 15.802 19.6205C16.0278 19.2333 16.5226 19.1043 16.9098 19.3301L25.9983 24.5897L35.0331 19.3624C35.4203 19.1365 35.9151 19.2764 36.1409 19.6528C36.3668 20.04 36.227 20.5348 35.8505 20.7606L26.4178 26.2245C26.278 26.289 26.1382 26.3321 25.9983 26.3321Z" fill="#292D32"/>
<path d="M25.9983 26.3321C25.8585 26.3321 25.7187 26.2998 25.5896 26.2245L16.0924 20.7284C15.7159 20.5025 15.5761 20.0077 15.802 19.6205C16.0278 19.2333 16.5226 19.1043 16.9098 19.3301L25.9983 24.5897L35.0331 19.3624C35.4203 19.1365 35.9151 19.2764 36.1409 19.6528C36.3668 20.04 36.227 20.5348 35.8505 20.7606L26.4178 26.2245C26.278 26.289 26.1382 26.3321 25.9983 26.3321Z" stroke="black"/>
<path d="M25.9993 36.0767C25.5583 36.0767 25.1926 35.711 25.1926 35.27V25.5146C25.1926 25.0736 25.5583 24.7079 25.9993 24.7079C26.4403 24.7079 26.806 25.0736 26.806 25.5146V35.27C26.806 35.711 26.4403 36.0767 25.9993 36.0767Z" fill="#292D32"/>
<path d="M25.9993 36.0767C25.5583 36.0767 25.1926 35.711 25.1926 35.27V25.5146C25.1926 25.0736 25.5583 24.7079 25.9993 24.7079C26.4403 24.7079 26.806 25.0736 26.806 25.5146V35.27C26.806 35.711 26.4403 36.0767 25.9993 36.0767Z" stroke="black"/>
<path d="M26 36.4961C25.0535 36.4961 24.1177 36.2917 23.3756 35.883L17.6321 32.6886C16.0725 31.8281 14.8571 29.7523 14.8571 27.9668V21.8899C14.8571 20.1044 16.0725 18.0394 17.6321 17.1681L23.3756 13.9845C24.8491 13.167 27.1508 13.167 28.6244 13.9845L34.3679 17.1789C35.9275 18.0394 37.1428 20.1152 37.1428 21.9006V27.9776C37.1428 29.763 35.9275 31.8281 34.3679 32.6993L28.6244 35.883C27.8822 36.2917 26.9465 36.4961 26 36.4961ZM26 14.9847C25.3224 14.9847 24.6555 15.1246 24.1608 15.3935L18.4173 18.5879C17.3847 19.1579 16.4705 20.7068 16.4705 21.8899V27.9668C16.4705 29.15 17.3847 30.6988 18.4173 31.2796L24.1608 34.474C25.1395 35.0225 26.8604 35.0225 27.8392 34.474L33.5827 31.2796C34.6153 30.6988 35.5295 29.1607 35.5295 27.9668V21.8899C35.5295 20.7068 34.6153 19.1579 33.5827 18.5771L27.8392 15.3827C27.3444 15.1246 26.6776 14.9847 26 14.9847Z" fill="#292D32"/>
<path d="M26 36.4961C25.0535 36.4961 24.1177 36.2917 23.3756 35.883L17.6321 32.6886C16.0725 31.8281 14.8571 29.7523 14.8571 27.9668V21.8899C14.8571 20.1044 16.0725 18.0394 17.6321 17.1681L23.3756 13.9845C24.8491 13.167 27.1508 13.167 28.6244 13.9845L34.3679 17.1789C35.9275 18.0394 37.1428 20.1152 37.1428 21.9006V27.9776C37.1428 29.763 35.9275 31.8281 34.3679 32.6993L28.6244 35.883C27.8822 36.2917 26.9465 36.4961 26 36.4961ZM26 14.9847C25.3224 14.9847 24.6555 15.1246 24.1608 15.3935L18.4173 18.5879C17.3847 19.1579 16.4705 20.7068 16.4705 21.8899V27.9668C16.4705 29.15 17.3847 30.6988 18.4173 31.2796L24.1608 34.474C25.1395 35.0225 26.8604 35.0225 27.8392 34.474L33.5827 31.2796C34.6153 30.6988 35.5295 29.1607 35.5295 27.9668V21.8899C35.5295 20.7068 34.6153 19.1579 33.5827 18.5771L27.8392 15.3827C27.3444 15.1246 26.6776 14.9847 26 14.9847Z" stroke="black"/>
</svg>
