<svg width="21" height="37" viewBox="0 0 21 37" fill="none" xmlns="http://www.w3.org/2000/svg">
<path d="M1.1375 23.9465L9.82259 27.7607C10.2049 27.9226 10.6419 27.9226 11.0061 27.7607L19.6912 23.9465C20.4559 23.6047 21.166 24.5222 20.638 25.1699L11.5341 36.1628C10.9151 36.9184 9.89542 36.9184 9.27635 36.1628L0.172427 25.1699C-0.337391 24.5222 0.372768 23.6047 1.1375 23.9465Z" fill="black"/>
<path d="M1.13829 13.5125L9.84151 9.69827C10.2239 9.53635 10.6609 9.53635 11.025 9.69827L19.7284 13.5125C20.4931 13.8543 21.2032 12.9367 20.6752 12.2891L11.5713 1.29623C10.9522 0.540581 9.93255 0.540581 9.31348 1.29623L0.209669 12.2891C-0.336565 12.9367 0.355349 13.8543 1.13829 13.5125Z" fill="black"/>
<path d="M10.0238 23.2468L2.50385 19.5406C1.83016 19.2167 1.83016 18.2632 2.50385 17.9393L10.0238 14.233C10.2787 14.1071 10.588 14.1071 10.8429 14.233L18.3628 17.9393C19.0364 18.2632 19.0364 19.2167 18.3628 19.5406L10.8429 23.2468C10.5698 23.3727 10.2787 23.3727 10.0238 23.2468Z" fill="black"/>
</svg>
