<svg width="234" height="54" viewBox="0 0 234 54" fill="none" xmlns="http://www.w3.org/2000/svg">
<g clip-path="url(#clip0_9_707)">
<mask id="mask0_9_707" style="mask-type:luminance" maskUnits="userSpaceOnUse" x="0" y="0" width="234" height="54">
<path d="M234 0H0V54H234V0Z" fill="white"/>
</mask>
<g mask="url(#mask0_9_707)">
<mask id="mask1_9_707" style="mask-type:luminance" maskUnits="userSpaceOnUse" x="0" y="0" width="234" height="54">
<path d="M233.788 0H0V53.6224H233.788V0Z" fill="white"/>
</mask>
<g mask="url(#mask1_9_707)">
<path d="M68.9959 17.5382V24.9112H77.9185V27.9431H68.9959V35.4886H78.9503V38.6935H65.083V14.3715H78.9481V17.5413L68.9959 17.5382ZM92.2682 35.2801V38.6908H89.8652C87.8515 38.6908 86.3241 38.2028 85.2827 37.2267C84.2413 36.2506 83.7208 34.6261 83.7213 32.3531V23.0506H81.0095V19.7088H83.7213V14.9888H87.6686V19.7088H92.2336V23.0506H87.6686V32.422C87.6686 33.5014 87.869 34.2477 88.2692 34.661C88.6694 35.0743 89.3731 35.2806 90.38 35.2801H92.2682ZM106.513 19.3988C108.71 19.3988 110.472 20.1109 111.799 21.5351C113.126 22.9593 113.789 24.992 113.79 27.6331V38.6926H109.877V28.0467C109.877 26.3471 109.442 25.0321 108.572 24.1016C108.11 23.6283 107.553 23.2591 106.937 23.0186C106.322 22.778 105.662 22.6716 105.003 22.7064C104.309 22.6757 103.616 22.7935 102.971 23.0519C102.326 23.3103 101.743 23.7034 101.261 24.2052C100.323 25.2045 99.8537 26.6687 99.8537 28.5981V38.6926H95.9409V13.1971H99.8537V23.8777C100.306 22.52 101.201 21.3548 102.394 20.5701C103.62 19.7783 105.055 19.3706 106.513 19.3988ZM135.929 28.2877C135.936 28.8535 135.89 29.4186 135.792 29.9758H121.238C121.306 31.9283 121.844 33.3753 122.851 34.3169C123.865 35.2618 125.209 35.7691 126.592 35.7296C127.775 35.7669 128.938 35.4161 129.905 34.7304C130.785 34.1003 131.384 33.1471 131.569 32.0774H135.757C135.522 33.3705 134.981 34.5878 134.178 35.626C133.351 36.6803 132.278 37.5144 131.054 38.0551C129.704 38.6551 128.24 38.9546 126.764 38.9332C125.072 38.9667 123.4 38.5634 121.909 37.7619C120.502 36.9819 119.352 35.8089 118.596 34.3853C117.764 32.7813 117.35 30.9912 117.395 29.1829C117.353 27.3858 117.766 25.6074 118.596 24.0147C119.352 22.5911 120.502 21.4181 121.909 20.6382C123.4 19.8366 125.072 19.4333 126.764 19.4669C128.454 19.4277 130.125 19.8252 131.619 20.621C132.963 21.3499 134.071 22.4498 134.812 23.7908C135.564 25.1679 135.949 26.7171 135.929 28.2877H135.929ZM131.982 28.1846C132.062 27.1065 131.842 26.0275 131.347 25.0675C130.913 24.2629 130.241 23.613 129.424 23.2069C128.596 22.8014 127.685 22.595 126.764 22.6041C125.349 22.5603 123.972 23.0664 122.92 24.0169C121.89 24.9587 121.33 26.349 121.238 28.1876L131.982 28.1846ZM143.616 23.4299C144.238 22.2092 145.19 21.1885 146.362 20.4841C147.608 19.7455 149.034 19.3697 150.481 19.3988V23.6709H149.314C147.598 23.6709 146.219 24.09 145.178 24.9283C144.137 25.7665 143.617 27.1505 143.62 29.0802V38.6948H139.707V19.7088H143.62L143.616 23.4299ZM159.611 19.4677C161.831 19.4677 163.609 20.0363 164.947 21.1733C166.301 22.3372 167.176 23.9645 167.401 25.7392H163.695C163.571 24.7732 163.102 23.8854 162.374 23.2411C161.568 22.58 160.547 22.2425 159.508 22.2937C158.687 22.241 157.874 22.4923 157.225 23.0001C156.957 23.2382 156.746 23.5335 156.606 23.8643C156.466 24.1951 156.403 24.5532 156.419 24.9121C156.408 25.1813 156.454 25.4498 156.555 25.6996C156.655 25.9494 156.808 26.1749 157.002 26.3609C157.423 26.7473 157.92 27.0408 158.461 27.2222C159.278 27.4946 160.109 27.7247 160.95 27.9115C162.368 28.2329 164.399 28.9107 164.399 28.9107C164.399 28.9107 166.035 29.8006 166.664 30.5474C167.334 31.4167 167.669 32.4992 167.608 33.5964C167.628 34.3359 167.475 35.0699 167.162 35.7398C166.849 36.4097 166.385 36.997 165.806 37.455C164.605 38.4428 162.986 38.9367 160.951 38.9367C158.594 38.9367 156.689 38.3854 155.236 37.2829C154.513 36.7293 153.908 36.0354 153.457 35.2422C153.006 34.4491 152.719 33.573 152.612 32.6661H156.422C156.468 33.1573 156.613 33.6338 156.849 34.0664C157.085 34.499 157.407 34.8784 157.795 35.1813C158.705 35.8599 159.821 36.2012 160.953 36.1471C161.758 36.1933 162.55 35.9283 163.167 35.4065C163.43 35.1703 163.637 34.8795 163.776 34.5543C163.915 34.2292 163.982 33.8776 163.972 33.524C163.986 33.231 163.939 32.9382 163.832 32.665C163.726 32.3918 163.562 32.1444 163.354 31.9391C162.909 31.5288 162.382 31.2176 161.809 31.0259C160.977 30.7502 160.129 30.5258 159.27 30.3542C158.135 30.1019 157.018 29.7793 155.923 29.3884C155.067 29.068 154.309 28.5273 153.726 27.8206C153.081 26.9797 152.758 25.9343 152.816 24.8748C152.795 24.1275 152.947 23.3855 153.259 22.707C153.572 22.0285 154.038 21.432 154.618 20.9644C155.82 19.9666 157.485 19.4677 159.612 19.4677H159.611ZM179.931 19.4677C182.38 19.4677 184.406 20.1166 186.006 21.4144C187.625 22.7409 188.69 24.6275 188.992 26.7029H184.837C184.657 25.5884 184.062 24.5842 183.173 23.8931C182.213 23.1906 181.047 22.8326 179.86 22.8768C179.154 22.8598 178.452 22.9938 177.801 23.27C177.15 23.5462 176.565 23.9582 176.085 24.4788C175.078 25.5467 174.574 27.1143 174.574 29.1816C174.574 31.2488 175.078 32.8221 176.085 33.9015C176.562 34.4264 177.146 34.8425 177.798 35.1218C178.449 35.4011 179.152 35.5371 179.86 35.5207C181.05 35.5664 182.22 35.2027 183.177 34.4898C184.064 33.7902 184.658 32.7822 184.841 31.6647H188.996C188.691 33.7439 187.627 35.6351 186.01 36.9703C184.409 38.2795 182.384 38.9341 179.935 38.9341C178.244 38.9676 176.572 38.5643 175.08 37.7628C173.673 36.9827 172.523 35.8098 171.768 34.3862C170.933 32.7824 170.519 30.9921 170.562 29.1833C170.52 27.3862 170.934 25.6078 171.764 24.0151C172.519 22.5916 173.67 21.4186 175.076 20.6386C176.569 19.8369 178.241 19.4337 179.933 19.4677H179.931ZM200.354 19.4677C201.915 19.4215 203.451 19.8667 204.748 20.7409C205.941 21.5643 206.842 22.7467 207.322 24.1174V19.7088H211.235V38.6926H207.322V34.2826C206.842 35.6534 205.941 36.8357 204.748 37.6591C203.451 38.5334 201.915 38.9785 200.354 38.9323C198.805 38.9585 197.278 38.553 195.944 37.761C194.627 36.954 193.572 35.7811 192.906 34.3845C192.14 32.7602 191.764 30.9785 191.808 29.182C191.766 27.3968 192.142 25.6267 192.906 24.0138C193.572 22.6171 194.627 21.4443 195.944 20.6373C197.279 19.8455 198.806 19.4406 200.356 19.4677H200.354ZM201.556 22.9132C200.782 22.8782 200.01 23.009 199.291 23.2972C198.572 23.5853 197.922 24.0241 197.385 24.5841C196.344 25.6981 195.823 27.2313 195.823 29.1838C195.823 31.1362 196.344 32.6693 197.387 33.783C197.923 34.3434 198.573 34.7824 199.292 35.0708C200.011 35.3593 200.783 35.4905 201.557 35.4557C202.593 35.4721 203.614 35.2041 204.509 34.6804C205.385 34.1573 206.098 33.3997 206.569 32.4927C207.091 31.4706 207.351 30.3336 207.324 29.1851C207.347 28.0424 207.087 26.912 206.569 25.8946C206.102 24.9802 205.388 24.2161 204.509 23.6894C203.614 23.1652 202.593 22.8966 201.557 22.9128L201.556 22.9132ZM226.51 19.401C228.707 19.401 230.469 20.1131 231.796 21.5373C233.123 22.9615 233.786 24.9942 233.787 27.6353V38.6926H229.874V28.0467C229.874 26.3471 229.439 25.0321 228.569 24.1016C228.107 23.6283 227.549 23.2591 226.934 23.0186C226.319 22.778 225.659 22.6716 225 22.7064C224.306 22.6757 223.613 22.7935 222.968 23.0519C222.323 23.3103 221.74 23.7034 221.258 24.2052C220.32 25.2045 219.851 26.6687 219.851 28.5981V38.6926H215.938V19.7088H219.851V23.8795C220.303 22.5218 221.198 21.3565 222.391 20.5719C223.618 19.7792 225.052 19.3709 226.511 19.3988L226.51 19.401Z" fill="#21325B"/>
<path d="M11.2801 25.6456C11.2802 25.3474 11.3389 25.0522 11.4529 24.7769C11.5669 24.5015 11.734 24.2516 11.9446 24.0412C12.1552 23.8309 12.405 23.6644 12.6799 23.5512C12.9547 23.4381 13.2491 23.3806 13.5462 23.382L17.3033 23.3943C17.9023 23.3943 18.4768 23.6332 18.9004 24.0583C19.324 24.4835 19.562 25.0601 19.562 25.6614V39.9209C19.9849 39.7949 20.5281 39.6606 21.1225 39.5201C21.5354 39.4228 21.9034 39.1882 22.1668 38.8545C22.4301 38.5208 22.5734 38.1076 22.5733 37.6819V19.9936C22.5733 19.3923 22.8113 18.8156 23.2348 18.3903C23.6584 17.9651 24.2329 17.7262 24.832 17.726H28.5965C29.1956 17.7262 29.7701 17.9651 30.1937 18.3903C30.6172 18.8156 30.8552 19.3923 30.8552 19.9936V36.41C30.8552 36.41 31.7978 36.0272 32.7158 35.6382C33.0569 35.4935 33.3479 35.2511 33.5526 34.9414C33.7574 34.6317 33.8667 34.2683 33.867 33.8966V14.3258C33.867 13.7246 34.1049 13.148 34.5284 12.7228C34.9519 12.2977 35.5262 12.0588 36.1252 12.0587H39.8898C40.4888 12.0587 41.0633 12.2975 41.4869 12.7227C41.9104 13.1478 42.1484 13.7245 42.1484 14.3258V30.4419C45.4122 28.0677 48.7197 25.2123 51.3444 21.7787C51.7254 21.2803 51.9773 20.695 52.0779 20.0752C52.1785 19.4553 52.1247 18.82 51.9213 18.2261C50.7063 14.7173 48.7752 11.5017 46.2511 8.78513C43.7269 6.06858 40.6657 3.91079 37.2631 2.44992C33.8605 0.989062 30.1916 0.257269 26.491 0.301382C22.7905 0.345493 19.1399 1.16454 15.7729 2.7061C12.4058 4.24766 9.39648 6.47779 6.93738 9.25378C4.47828 12.0297 2.62361 15.2905 1.49205 18.8272C0.360492 22.364 -0.0230302 26.0989 0.366022 29.793C0.755074 33.4871 1.90814 37.0589 3.75142 40.28C4.07252 40.8357 4.54493 41.2878 5.11314 41.5833C5.68134 41.8788 6.32176 42.0054 6.9592 41.9483C7.67126 41.8855 8.55784 41.7964 9.61193 41.6722C10.0708 41.6199 10.4944 41.4 10.8021 41.0543C11.1099 40.7087 11.2802 40.2615 11.2805 39.798L11.2801 25.6456Z" fill="#21325B"/>
<path d="M11.1979 48.5166C15.166 51.4141 19.8554 53.1536 24.7472 53.5421C29.6391 53.9302 34.5426 52.9529 38.9153 50.7174C43.288 48.4819 46.9592 45.076 49.5231 40.8762C52.0866 36.6763 53.443 31.8464 53.4417 26.9208C53.4417 26.3062 53.4132 25.6982 53.3725 25.0936C43.6543 39.642 25.7107 46.4435 11.1988 48.5144" fill="#979695"/>
</g>
</g>
</g>
<defs>
<clipPath id="clip0_9_707">
<rect width="234" height="54" fill="white"/>
</clipPath>
</defs>
</svg>
