<svg width="51" height="50" viewBox="0 0 51 50" fill="none" xmlns="http://www.w3.org/2000/svg">
<rect x="0.647644" width="50" height="50" rx="10" fill="#082340"/>
<path d="M23.9422 12.1939C17.8035 12.1939 12.8099 17.1876 12.8099 23.3262C12.8099 29.4649 17.8035 34.4586 23.9422 34.4586C25.8188 34.4586 27.6636 34.0133 29.2221 33.1545C29.3469 33.3047 29.4854 33.4431 29.6356 33.568L32.8163 36.7486C33.1099 37.0791 33.4681 37.3461 33.8687 37.5331C34.2693 37.7202 34.7039 37.8234 35.1458 37.8364C35.5877 37.8494 36.0277 37.7719 36.4386 37.6088C36.8495 37.4456 37.2227 37.2002 37.5353 36.8876C37.848 36.5749 38.0934 36.2017 38.2565 35.7908C38.4197 35.3799 38.4972 34.94 38.4841 34.498C38.4711 34.0561 38.3679 33.6215 38.1809 33.2209C37.9938 32.8203 37.7269 32.4622 37.3964 32.1685L34.2157 28.9878C34.0608 28.8328 33.8903 28.6943 33.7068 28.5743C34.5656 27.0158 35.1063 25.2028 35.1063 23.2944C35.1063 17.1558 30.1127 12.1621 23.974 12.1621L23.9422 12.1939ZM23.9422 15.3746C28.3633 15.3746 31.8939 18.9051 31.8939 23.3262C31.8939 25.4255 31.1305 27.3657 29.7946 28.797C29.7628 28.8288 29.731 28.8606 29.6992 28.8924C29.549 29.0172 29.4106 29.1557 29.2857 29.3059C27.8862 30.5782 25.9778 31.3097 23.9104 31.3097C19.4893 31.3097 15.9587 27.7792 15.9587 23.358C15.9587 18.9369 19.4893 15.4064 23.9104 15.4064L23.9422 15.3746Z" fill="white"/>
</svg>
